<?xml version="1.0" encoding="UTF-8"?>
<svg width="56px" height="20px" viewBox="0 0 56 20" version="1.1" xmlns="http://www.w3.org/2000/svg" xmlns:xlink="http://www.w3.org/1999/xlink">
    <!-- Generator: Sketch 52.6 (67491) - http://www.bohemiancoding.com/sketch -->
    <title>Swoosh</title>
    <desc>Created with Sketch.</desc>
    <g id="Symbols" stroke="none" stroke-width="1" fill="none" fill-rule="evenodd">
        <g id="Header---Global-Store" transform="translate(-25.000000, -20.000000)" fill="#000000" fill-rule="nonzero">
            <g id="Nav-Bar">
                <path d="M31.177219,39.9918703 C29.5086502,39.9254455 28.1435094,39.4679158 27.0760825,38.6181361 C26.8723685,38.4557961 26.3869406,37.9690624 26.2240838,37.7637753 C25.7912273,37.2183473 25.496942,36.6875212 25.3006566,36.0985735 C24.6966575,34.2856337 25.0075142,31.9066512 26.1897981,29.2957544 C27.2020823,27.0605016 28.7640799,24.8435728 31.4892186,21.7731422 C31.8906465,21.3213388 33.0860733,20 33.0937875,20 C33.0966447,20 33.0315019,20.113094 32.949502,20.250811 C32.2409317,21.4401591 31.6346469,22.8410932 31.3043617,24.053919 C30.7737911,25.9999948 30.837791,27.6700639 31.49179,28.9650619 C31.9429322,29.8572161 32.7163595,30.6299774 33.5860725,31.0571578 C35.1086416,31.8047234 37.337781,31.8665673 40.0600626,31.2381082 C40.2474909,31.1945885 49.5349053,28.7239855 60.6988882,25.7477522 C71.8628711,22.7712326 80.9985714,20.3378504 81,20.3398546 C81.0031429,20.3424315 55.0628968,31.4657277 41.5969174,37.2363851 C39.4643492,38.1500128 38.8940644,38.3807818 37.8914945,38.7335206 C35.3286413,39.6354095 33.0329305,40.0657393 31.177219,39.9918703 Z" id="Swoosh"></path>
            </g>
        </g>
    </g>
</svg>